USFL
nRows=363
nColumns=2
inDegrees=yes
endheader
time	soleus_r	
0	 30.086040	
0.0332661	 30.128183	
0.0665323	 30.095846	
0.0997984	 30.136609	
0.133065	 30.166892	
0.166331	 30.091311	
0.199597	 30.076605	
0.232863	 30.081416	
0.266129	 30.052513	
0.299395	 30.006364	
0.332661	 29.985126	
0.365927	 30.109497	
0.399194	 30.100231	
0.43246	 30.070544	
0.465726	 30.086021	
0.498992	 30.090307	
0.532258	 30.037543	
0.565524	 30.043260	
0.59879	 30.004775	
0.632056	 30.053052	
0.665323	 30.061137	
0.698589	 29.996475	
0.731855	 30.131997	
0.765121	 30.120977	
0.798387	 30.107004	
0.831653	 30.096819	
0.864919	 30.141379	
0.898185	 30.119075	
0.931452	 30.148038	
0.964718	 30.157592	
0.997984	 30.056882	
1.03125	 29.994886	
1.06452	 29.958218	
1.09778	 30.053992	
1.13105	 30.031999	
1.16431	 30.028329	
1.19758	 30.074865	
1.23085	 30.100710	
1.26411	 30.067264	
1.29738	 30.061078	
1.33065	 30.068629	
1.36391	 30.055496	
1.39718	 30.032304	
1.43044	 30.043496	
1.46371	 29.970255	
1.49698	 29.979423	
1.53024	 29.951705	
1.56351	 30.038488	
1.59677	 30.125996	
1.63004	 29.988829	
1.66331	 30.007716	
1.69657	 30.080727	
1.72984	 29.920573	
1.7631	 29.906087	
1.79637	 30.060071	
1.82964	 25.113733	
1.8629	 25.170668	
1.89617	 25.219608	
1.92944	 25.091976	
1.9627	 25.044502	
1.99597	 25.085437	
2.02923	 25.136253	
2.0625	 25.106596	
2.09577	 25.139605	
2.12903	 25.149749	
2.1623	 25.130334	
2.19556	 25.087619	
2.22883	 25.085224	
2.2621	 25.142961	
2.29536	 25.243654	
2.32863	 25.201182	
2.3619	 25.261947	
2.39516	 25.349370	
2.42843	 25.370535	
2.46169	 25.363490	
2.49496	 25.270168	
2.52823	 25.290936	
2.56149	 25.318273	
2.59476	 25.275256	
2.62802	 25.369804	
2.66129	 25.438495	
2.69456	 25.418237	
2.72782	 25.480752	
2.76109	 25.472335	
2.79435	 25.449298	
2.82762	 25.461667	
2.86089	 25.448603	
2.89415	 25.388178	
2.92742	 25.361710	
2.96069	 25.368965	
2.99395	 25.369710	
3.02722	 25.362398	
3.06048	 25.388153	
3.09375	 25.356241	
3.12702	 25.430958	
3.16028	 25.446749	
3.19355	 25.490307	
3.22681	 25.600367	
3.26008	 25.604743	
3.29335	 25.602239	
3.32661	 25.602136	
3.35988	 25.622497	
3.39315	 25.627471	
3.42641	 25.640957	
3.45968	 25.634509	
3.49294	 25.636319	
3.52621	 25.639945	
3.55948	 25.618745	
3.59274	 25.621709	
3.62601	 25.584986	
3.65927	 25.535378	
3.69254	 25.569900	
3.72581	 25.499484	
3.75907	 25.480449	
3.79234	 25.442777	
3.8256	 25.506496	
3.85887	 25.561079	
3.89214	 25.556757	
3.9254	 25.590891	
3.95867	 25.576225	
3.99194	 25.585347	
4.0252	 25.606213	
4.05847	 25.618162	
4.09173	 25.593723	
4.125	 25.610325	
4.15827	 25.606885	
4.19153	 25.686991	
4.2248	 25.704428	
4.25806	 25.690499	
4.29133	 25.682537	
4.3246	 25.670923	
4.35786	 25.673261	
4.39113	 25.687990	
4.4244	 25.721866	
4.45766	 25.697743	
4.49093	 25.688778	
4.52419	 25.674897	
4.55746	 25.683690	
4.59073	 25.618116	
4.62399	 25.599259	
4.65726	 25.660641	
4.69052	 25.579771	
4.72379	 25.569352	
4.75706	 25.580254	
4.79032	 25.591562	
4.82359	 25.582890	
4.85685	 25.551327	
4.89012	 25.565239	
4.92339	 25.549437	
4.95665	 25.560168	
4.98992	 25.573506	
5.02319	 25.506981	
5.05645	 25.506421	
5.08972	 25.504572	
5.12298	 25.461150	
5.15625	 25.452140	
5.18952	 25.463735	
5.22278	 25.461286	
5.25605	 25.439310	
5.28931	 25.444529	
5.32258	 25.434390	
5.35585	 25.453413	
5.38911	 25.429090	
5.42238	 25.384739	
5.45565	 25.409790	
5.48891	 25.395175	
5.52218	 25.378948	
5.55544	 25.357641	
5.58871	 25.290194	
5.62198	 25.278503	
5.65524	 25.252141	
5.68851	 25.195599	
5.72177	 25.182275	
5.75504	 25.241600	
5.78831	 25.229395	
5.82157	 25.195750	
5.85484	 25.168347	
5.8881	 25.135947	
5.92137	 25.191429	
5.95464	 25.211936	
5.9879	 25.228547	
6.02117	 25.193783	
6.05444	 25.118623	
6.0877	 25.095698	
6.12097	 25.132969	
6.15423	 25.128853	
6.1875	 25.138012	
6.22077	 25.171471	
6.25403	 25.175339	
6.2873	 25.195841	
6.32056	 25.193024	
6.35383	 25.196683	
6.3871	 25.188209	
6.42036	 25.125829	
6.45363	 25.068647	
6.4869	 25.079009	
6.52016	 25.096229	
6.55343	 25.118163	
6.58669	 25.118187	
6.61996	 25.149625	
6.65323	 25.162938	
6.68649	 25.123899	
6.71976	 25.072513	
6.75302	 25.078799	
6.78629	 25.073381	
6.81956	 25.092779	
6.85282	 25.106303	
6.88609	 25.118725	
6.91935	 25.049805	
6.95262	 24.996933	
6.98589	 25.017983	
7.01915	 24.970893	
7.05242	 24.935085	
7.08569	 24.914293	
7.11895	 24.932103	
7.15222	 24.912596	
7.18548	 24.889931	
7.21875	 24.850242	
7.25202	 24.824707	
7.28528	 24.813271	
7.31855	 24.807778	
7.35181	 24.778962	
7.38508	 24.838131	
7.41835	 24.891998	
7.45161	 24.893528	
7.48488	 24.908517	
7.51815	 24.924120	
7.55141	 24.909520	
7.58468	 24.905495	
7.61794	 24.902573	
7.65121	 24.876571	
7.68448	 24.818657	
7.71774	 24.789076	
7.75101	 24.802985	
7.78427	 24.802823	
7.81754	 24.778971	
7.85081	 24.781096	
7.88407	 24.792007	
7.91734	 24.813960	
7.9506	 24.829236	
7.98387	 24.814494	
8.01714	 24.837623	
8.0504	 24.845680	
8.08367	 24.825669	
8.11694	 24.861469	
8.1502	 24.866146	
8.18347	 24.853846	
8.21673	 24.857867	
8.25	 24.835485	
8.28327	 24.831718	
8.31653	 24.841782	
8.3498	 24.853576	
8.38306	 24.809160	
8.41633	 24.779906	
8.4496	 24.794083	
8.48286	 24.770792	
8.51613	 24.777837	
8.5494	 24.788410	
8.58266	 24.775192	
8.61593	 24.755863	
8.64919	 24.788443	
8.68246	 24.816380	
8.71573	 24.797649	
8.74899	 24.805264	
8.78226	 24.824475	
8.81552	 24.850468	
8.84879	 24.829601	
8.88206	 24.798950	
8.91532	 24.769367	
8.94859	 24.823973	
8.98185	 24.799441	
9.01512	 24.923852	
9.04839	 25.030495	
9.08165	 25.020832	
9.11492	 24.983507	
9.14819	 24.916231	
9.18145	 24.905722	
9.21472	 24.804607	
9.24798	 24.784217	
9.28125	 24.790849	
9.31452	 24.721854	
9.34778	 24.633061	
9.38105	 24.583875	
9.41431	 24.526892	
9.44758	 24.541021	
9.48085	 24.503293	
9.51411	 24.496464	
9.54738	 24.487981	
9.58065	 24.460266	
9.61391	 24.429374	
9.64718	 24.402717	
9.68044	 24.472482	
9.71371	 24.462171	
9.74698	 24.548189	
9.78024	 24.549995	
9.81351	 24.537889	
9.84677	 24.546200	
9.88004	 24.526242	
9.91331	 24.493186	
9.94657	 24.541908	
9.97984	 24.572342	
10.0131	 24.569779	
10.0464	 24.565685	
10.0796	 24.582021	
10.1129	 24.561658	
10.1462	 24.591739	
10.1794	 24.624375	
10.2127	 24.651963	
10.246	 24.713202	
10.2792	 24.717935	
10.3125	 24.731048	
10.3458	 24.774917	
10.379	 24.832687	
10.4123	 24.798643	
10.4456	 24.845880	
10.4788	 24.883008	
10.5121	 24.916061	
10.5454	 24.924979	
10.5786	 25.025422	
10.6119	 25.090682	
10.6452	 25.090377	
10.6784	 25.034269	
10.7117	 25.041573	
10.745	 25.027760	
10.7782	 24.963911	
10.8115	 24.993758	
10.8448	 25.001739	
10.878	 25.064949	
10.9113	 25.048719	
10.9446	 25.101349	
10.9778	 25.147848	
11.0111	 25.171556	
11.0444	 25.230342	
11.0776	 25.287462	
11.1109	 25.322381	
11.1442	 25.313582	
11.1774	 25.326761	
11.2107	 25.312554	
11.244	 25.258670	
11.2772	 25.240380	
11.3105	 25.283241	
11.3437	 25.288805	
11.377	 25.242285	
11.4103	 25.328098	
11.4435	 25.373798	
11.4768	 25.372974	
11.5101	 25.398125	
11.5433	 25.389298	
11.5766	 25.410802	
11.6099	 25.416412	
11.6431	 25.448048	
11.6764	 25.457579	
11.7097	 25.481200	
11.7429	 25.499091	
11.7762	 25.408753	
11.8095	 25.385047	
11.8427	 25.325724	
11.876	 25.282425	
11.9093	 25.259974	
11.9425	 25.258655	
11.9758	 25.309496	
12.0091	 25.327854	
12.0423	 25.322880	
